SplineFontDB: 3.2
FontName: AirbusFCU
FullName: AirbusFCU
FamilyName: AirbusFCU
Weight: Regular
Copyright: Copyright (c) 2021, Tyler Knox
UComments: "2021-2-13: Created with FontForge (http://fontforge.org)"
Version: 001.000
ItalicAngle: 0
UnderlinePosition: -100
UnderlineWidth: 50
Ascent: 800
Descent: 200
InvalidEm: 0
LayerCount: 2
Layer: 0 0 "Back" 1
Layer: 1 0 "Fore" 0
XUID: [1021 809 -1304484988 27950]
StyleMap: 0x0000
FSType: 0
OS2Version: 0
OS2_WeightWidthSlopeOnly: 0
OS2_UseTypoMetrics: 1
CreationTime: 1613250857
ModificationTime: 1613410370
PfmFamily: 17
TTFWeight: 400
TTFWidth: 5
LineGap: 90
VLineGap: 90
OS2TypoAscent: 0
OS2TypoAOffset: 1
OS2TypoDescent: 0
OS2TypoDOffset: 1
OS2TypoLinegap: 90
OS2WinAscent: 0
OS2WinAOffset: 1
OS2WinDescent: 0
OS2WinDOffset: 1
HheadAscent: 0
HheadAOffset: 1
HheadDescent: 0
HheadDOffset: 1
OS2Vendor: 'PfEd'
MarkAttachClasses: 1
DEI: 91125
LangName: 1033
Encoding: ISO8859-1
UnicodeInterp: none
NameList: AGL For New Fonts
DisplaySize: -48
AntiAlias: 1
FitToEm: 0
WinInfo: 0 19 9
BeginPrivate: 0
EndPrivate
BeginChars: 256 23

StartChar: eight
Encoding: 56 56 0
Width: 754
Flags: HW
LayerCount: 2
Back
Fore
SplineSet
447.459960938 795.240234375 m 21
 473.85546875 783.598632812 495.061523438 766.505859375 502.809570312 735.27734375 c 13
 505.577148438 464.985351562 l 21
 494.375976562 438.146484375 479.227539062 419.232421875 455.762695312 417.014648438 c 13
 433.622070312 415.169921875 l 29
 382.884765625 465.907226562 l 29
 382.884765625 661.477539062 l 29
 447.459960938 795.240234375 l 21
159.639648438 679.004882812 m 29
 372.737304688 679.927734375 l 29
 426.2421875 799.852539062 l 29
 102.4453125 798.9296875 l 21
 82.9033203125 791.814453125 68.1884765625 783.434570312 60.9326171875 773.099609375 c 13
 159.639648438 679.004882812 l 29
139.344726562 676.237304688 m 29
 141.190429688 462.217773438 l 29
 93.2197265625 442.844726562 l 29
 68.3125 440.077148438 l 21
 48.3369140625 440.25 30.88671875 446.02734375 23.1103515625 473.287109375 c 13
 23.1103515625 728.8203125 l 21
 27.478515625 742.904296875 34.6064453125 755.275390625 50.78515625 762.030273438 c 13
 139.344726562 676.237304688 l 29
135.655273438 334.912109375 m 29
 136.577148438 133.807617188 l 29
 40.6376953125 32.33203125 l 29
 18.4970703125 63.697265625 l 29
 18.4970703125 315.540039062 l 21
 24.5205078125 332.502929688 30.0068359375 349.680664062 60.009765625 357.052734375 c 13
 85.83984375 357.052734375 l 29
 135.655273438 334.912109375 l 29
365.357421875 338.602539062 m 29
 418.862304688 396.719726562 l 29
 367.202148438 458.52734375 l 29
 172.5546875 458.52734375 l 29
 59.087890625 408.712890625 l 29
 58.1650390625 388.41796875 l 29
 165.174804688 338.602539062 l 29
 365.357421875 338.602539062 l 29
461.297851562 387.495117188 m 21
 483.1015625 378.731445312 490.848632812 366.1015625 498.197265625 353.362304688 c 13
 504.655273438 71.0771484375 l 29
 439.157226562 5.580078125 l 29
 380.1171875 133.807617188 l 29
 378.272460938 331.22265625 l 29
 434.544921875 385.650390625 l 29
 461.297851562 387.495117188 l 21
54.474609375 16.650390625 m 29
 144.879882812 117.202148438 l 29
 369.969726562 118.125 l 29
 418.862304688 -1.7998046875 l 29
 95.9873046875 -4.5673828125 l 29
 54.474609375 16.650390625 l 29
EndSplineSet
Validated: 9
EndChar

StartChar: zero
Encoding: 48 48 1
Width: 754
Flags: HW
LayerCount: 2
Fore
SplineSet
447.459960938 795.240234375 m 17
 473.85546875 783.598632812 495.061523438 766.505859375 502.809570312 735.27734375 c 9
 505.577148438 464.985351562 l 17
 494.375976562 438.146484375 479.227539062 419.232421875 455.762695312 417.014648438 c 9
 433.622070312 415.169921875 l 25
 382.884765625 465.907226562 l 25
 382.884765625 661.477539062 l 25
 447.459960938 795.240234375 l 17
159.639648438 679.004882812 m 25
 372.737304688 679.927734375 l 25
 426.2421875 799.852539062 l 25
 102.4453125 798.9296875 l 17
 82.9033203125 791.814453125 68.1884765625 783.434570312 60.9326171875 773.099609375 c 9
 159.639648438 679.004882812 l 25
139.344726562 676.237304688 m 25
 141.190429688 462.217773438 l 25
 93.2197265625 442.844726562 l 25
 68.3125 440.077148438 l 17
 48.3369140625 440.25 30.88671875 446.02734375 23.1103515625 473.287109375 c 9
 23.1103515625 728.8203125 l 17
 27.478515625 742.904296875 34.6064453125 755.275390625 50.78515625 762.030273438 c 9
 139.344726562 676.237304688 l 25
135.655273438 334.912109375 m 25
 136.577148438 133.807617188 l 25
 40.6376953125 32.33203125 l 25
 18.4970703125 63.697265625 l 25
 18.4970703125 315.540039062 l 17
 24.5205078125 332.502929688 30.0068359375 349.680664062 60.009765625 357.052734375 c 9
 85.83984375 357.052734375 l 25
 135.655273438 334.912109375 l 25
461.297851562 387.495117188 m 17
 483.1015625 378.731445312 490.848632812 366.1015625 498.197265625 353.362304688 c 9
 504.655273438 71.0771484375 l 25
 439.157226562 5.580078125 l 25
 380.1171875 133.807617188 l 25
 378.272460938 331.22265625 l 25
 434.544921875 385.650390625 l 25
 461.297851562 387.495117188 l 17
54.474609375 16.650390625 m 25
 144.879882812 117.202148438 l 25
 369.969726562 118.125 l 25
 418.862304688 -1.7998046875 l 25
 95.9873046875 -4.5673828125 l 25
 54.474609375 16.650390625 l 25
EndSplineSet
Validated: 9
EndChar

StartChar: one
Encoding: 49 49 2
Width: 754
Flags: HW
LayerCount: 2
Fore
SplineSet
447.459960938 795.240234375 m 17
 473.85546875 783.598632812 495.061523438 766.505859375 502.809570312 735.27734375 c 9
 505.577148438 464.985351562 l 17
 494.375976562 438.146484375 479.227539062 419.232421875 455.762695312 417.014648438 c 9
 433.622070312 415.169921875 l 25
 382.884765625 465.907226562 l 25
 382.884765625 661.477539062 l 25
 447.459960938 795.240234375 l 17
461.297851562 387.495117188 m 17
 483.1015625 378.731445312 490.848632812 366.1015625 498.197265625 353.362304688 c 9
 504.655273438 71.0771484375 l 25
 439.157226562 5.580078125 l 25
 380.1171875 133.807617188 l 25
 378.272460938 331.22265625 l 25
 434.544921875 385.650390625 l 25
 461.297851562 387.495117188 l 17
EndSplineSet
Validated: 1
EndChar

StartChar: two
Encoding: 50 50 3
Width: 754
Flags: HW
LayerCount: 2
Fore
SplineSet
447.459960938 795.240234375 m 17
 473.85546875 783.598632812 495.061523438 766.505859375 502.809570312 735.27734375 c 9
 505.577148438 464.985351562 l 17
 494.375976562 438.146484375 479.227539062 419.232421875 455.762695312 417.014648438 c 9
 433.622070312 415.169921875 l 25
 382.884765625 465.907226562 l 25
 382.884765625 661.477539062 l 25
 447.459960938 795.240234375 l 17
159.639648438 679.004882812 m 25
 372.737304688 679.927734375 l 25
 426.2421875 799.852539062 l 25
 102.4453125 798.9296875 l 17
 82.9033203125 791.814453125 68.1884765625 783.434570312 60.9326171875 773.099609375 c 9
 159.639648438 679.004882812 l 25
135.655273438 334.912109375 m 25
 136.577148438 133.807617188 l 25
 40.6376953125 32.33203125 l 25
 18.4970703125 63.697265625 l 25
 18.4970703125 315.540039062 l 17
 24.5205078125 332.502929688 30.0068359375 349.680664062 60.009765625 357.052734375 c 9
 85.83984375 357.052734375 l 25
 135.655273438 334.912109375 l 25
365.357421875 338.602539062 m 25
 418.862304688 396.719726562 l 25
 367.202148438 458.52734375 l 25
 172.5546875 458.52734375 l 25
 59.087890625 408.712890625 l 25
 58.1650390625 388.41796875 l 25
 165.174804688 338.602539062 l 25
 365.357421875 338.602539062 l 25
54.474609375 16.650390625 m 25
 144.879882812 117.202148438 l 25
 369.969726562 118.125 l 25
 418.862304688 -1.7998046875 l 25
 95.9873046875 -4.5673828125 l 25
 54.474609375 16.650390625 l 25
EndSplineSet
Validated: 9
EndChar

StartChar: three
Encoding: 51 51 4
Width: 754
Flags: HW
LayerCount: 2
Fore
SplineSet
447.459960938 795.240234375 m 17
 473.85546875 783.598632812 495.061523438 766.505859375 502.809570312 735.27734375 c 9
 505.577148438 464.985351562 l 17
 494.375976562 438.146484375 479.227539062 419.232421875 455.762695312 417.014648438 c 9
 433.622070312 415.169921875 l 25
 382.884765625 465.907226562 l 25
 382.884765625 661.477539062 l 25
 447.459960938 795.240234375 l 17
159.639648438 679.004882812 m 25
 372.737304688 679.927734375 l 25
 426.2421875 799.852539062 l 25
 102.4453125 798.9296875 l 17
 82.9033203125 791.814453125 68.1884765625 783.434570312 60.9326171875 773.099609375 c 9
 159.639648438 679.004882812 l 25
365.357421875 338.602539062 m 25
 418.862304688 396.719726562 l 25
 367.202148438 458.52734375 l 25
 172.5546875 458.52734375 l 25
 59.087890625 408.712890625 l 25
 58.1650390625 388.41796875 l 25
 165.174804688 338.602539062 l 25
 365.357421875 338.602539062 l 25
461.297851562 387.495117188 m 17
 483.1015625 378.731445312 490.848632812 366.1015625 498.197265625 353.362304688 c 9
 504.655273438 71.0771484375 l 25
 439.157226562 5.580078125 l 25
 380.1171875 133.807617188 l 25
 378.272460938 331.22265625 l 25
 434.544921875 385.650390625 l 25
 461.297851562 387.495117188 l 17
54.474609375 16.650390625 m 25
 144.879882812 117.202148438 l 25
 369.969726562 118.125 l 25
 418.862304688 -1.7998046875 l 25
 95.9873046875 -4.5673828125 l 25
 54.474609375 16.650390625 l 25
EndSplineSet
Validated: 9
EndChar

StartChar: four
Encoding: 52 52 5
Width: 754
Flags: HW
LayerCount: 2
Fore
SplineSet
447.459960938 795.240234375 m 17
 473.85546875 783.598632812 495.061523438 766.505859375 502.809570312 735.27734375 c 9
 505.577148438 464.985351562 l 17
 494.375976562 438.146484375 479.227539062 419.232421875 455.762695312 417.014648438 c 9
 433.622070312 415.169921875 l 25
 382.884765625 465.907226562 l 25
 382.884765625 661.477539062 l 25
 447.459960938 795.240234375 l 17
139.344726562 676.237304688 m 25
 141.190429688 462.217773438 l 25
 93.2197265625 442.844726562 l 25
 68.3125 440.077148438 l 17
 48.3369140625 440.25 30.88671875 446.02734375 23.1103515625 473.287109375 c 9
 23.1103515625 728.8203125 l 17
 27.478515625 742.904296875 34.6064453125 755.275390625 50.78515625 762.030273438 c 9
 139.344726562 676.237304688 l 25
365.357421875 338.602539062 m 25
 418.862304688 396.719726562 l 25
 367.202148438 458.52734375 l 25
 172.5546875 458.52734375 l 25
 59.087890625 408.712890625 l 25
 58.1650390625 388.41796875 l 25
 165.174804688 338.602539062 l 25
 365.357421875 338.602539062 l 25
461.297851562 387.495117188 m 17
 483.1015625 378.731445312 490.848632812 366.1015625 498.197265625 353.362304688 c 9
 504.655273438 71.0771484375 l 25
 439.157226562 5.580078125 l 25
 380.1171875 133.807617188 l 25
 378.272460938 331.22265625 l 25
 434.544921875 385.650390625 l 25
 461.297851562 387.495117188 l 17
EndSplineSet
Validated: 9
EndChar

StartChar: five
Encoding: 53 53 6
Width: 754
Flags: HW
LayerCount: 2
Fore
SplineSet
159.639648438 679.004882812 m 25
 372.737304688 679.927734375 l 25
 426.2421875 799.852539062 l 25
 102.4453125 798.9296875 l 17
 82.9033203125 791.814453125 68.1884765625 783.434570312 60.9326171875 773.099609375 c 9
 159.639648438 679.004882812 l 25
139.344726562 676.237304688 m 25
 141.190429688 462.217773438 l 25
 93.2197265625 442.844726562 l 25
 68.3125 440.077148438 l 17
 48.3369140625 440.25 30.88671875 446.02734375 23.1103515625 473.287109375 c 9
 23.1103515625 728.8203125 l 17
 27.478515625 742.904296875 34.6064453125 755.275390625 50.78515625 762.030273438 c 9
 139.344726562 676.237304688 l 25
365.357421875 338.602539062 m 25
 418.862304688 396.719726562 l 25
 367.202148438 458.52734375 l 25
 172.5546875 458.52734375 l 25
 59.087890625 408.712890625 l 25
 58.1650390625 388.41796875 l 25
 165.174804688 338.602539062 l 25
 365.357421875 338.602539062 l 25
461.297851562 387.495117188 m 17
 483.1015625 378.731445312 490.848632812 366.1015625 498.197265625 353.362304688 c 9
 504.655273438 71.0771484375 l 25
 439.157226562 5.580078125 l 25
 380.1171875 133.807617188 l 25
 378.272460938 331.22265625 l 25
 434.544921875 385.650390625 l 25
 461.297851562 387.495117188 l 17
54.474609375 16.650390625 m 25
 144.879882812 117.202148438 l 25
 369.969726562 118.125 l 25
 418.862304688 -1.7998046875 l 25
 95.9873046875 -4.5673828125 l 25
 54.474609375 16.650390625 l 25
EndSplineSet
Validated: 9
EndChar

StartChar: six
Encoding: 54 54 7
Width: 754
Flags: HW
LayerCount: 2
Fore
SplineSet
159.639648438 679.004882812 m 25
 372.737304688 679.927734375 l 25
 426.2421875 799.852539062 l 25
 102.4453125 798.9296875 l 17
 82.9033203125 791.814453125 68.1884765625 783.434570312 60.9326171875 773.099609375 c 9
 159.639648438 679.004882812 l 25
139.344726562 676.237304688 m 25
 141.190429688 462.217773438 l 25
 93.2197265625 442.844726562 l 25
 68.3125 440.077148438 l 17
 48.3369140625 440.25 30.88671875 446.02734375 23.1103515625 473.287109375 c 9
 23.1103515625 728.8203125 l 17
 27.478515625 742.904296875 34.6064453125 755.275390625 50.78515625 762.030273438 c 9
 139.344726562 676.237304688 l 25
135.655273438 334.912109375 m 25
 136.577148438 133.807617188 l 25
 40.6376953125 32.33203125 l 25
 18.4970703125 63.697265625 l 25
 18.4970703125 315.540039062 l 17
 24.5205078125 332.502929688 30.0068359375 349.680664062 60.009765625 357.052734375 c 9
 85.83984375 357.052734375 l 25
 135.655273438 334.912109375 l 25
365.357421875 338.602539062 m 25
 418.862304688 396.719726562 l 25
 367.202148438 458.52734375 l 25
 172.5546875 458.52734375 l 25
 59.087890625 408.712890625 l 25
 58.1650390625 388.41796875 l 25
 165.174804688 338.602539062 l 25
 365.357421875 338.602539062 l 25
461.297851562 387.495117188 m 17
 483.1015625 378.731445312 490.848632812 366.1015625 498.197265625 353.362304688 c 9
 504.655273438 71.0771484375 l 25
 439.157226562 5.580078125 l 25
 380.1171875 133.807617188 l 25
 378.272460938 331.22265625 l 25
 434.544921875 385.650390625 l 25
 461.297851562 387.495117188 l 17
54.474609375 16.650390625 m 25
 144.879882812 117.202148438 l 25
 369.969726562 118.125 l 25
 418.862304688 -1.7998046875 l 25
 95.9873046875 -4.5673828125 l 25
 54.474609375 16.650390625 l 25
EndSplineSet
Validated: 9
EndChar

StartChar: seven
Encoding: 55 55 8
Width: 754
Flags: HWO
LayerCount: 2
Fore
SplineSet
447.459960938 795.240234375 m 17
 473.85546875 783.598632812 495.061523438 766.505859375 502.809570312 735.27734375 c 9
 505.577148438 464.985351562 l 17
 494.375976562 438.146484375 479.227539062 419.232421875 455.762695312 417.014648438 c 9
 433.622070312 415.169921875 l 25
 382.884765625 465.907226562 l 25
 382.884765625 661.477539062 l 25
 447.459960938 795.240234375 l 17
159.639648438 679.004882812 m 25
 372.737304688 679.927734375 l 25
 426.2421875 799.852539062 l 25
 102.4453125 798.9296875 l 17
 82.9033203125 791.814453125 68.1884765625 783.434570312 60.9326171875 773.099609375 c 9
 159.639648438 679.004882812 l 25
461.297851562 387.495117188 m 17
 483.1015625 378.731445312 490.848632812 366.1015625 498.197265625 353.362304688 c 9
 504.655273438 71.0771484375 l 25
 439.157226562 5.580078125 l 25
 380.1171875 133.807617188 l 25
 378.272460938 331.22265625 l 25
 434.544921875 385.650390625 l 25
 461.297851562 387.495117188 l 17
EndSplineSet
EndChar

StartChar: nine
Encoding: 57 57 9
Width: 754
Flags: HW
LayerCount: 2
Fore
SplineSet
447.459960938 795.240234375 m 17
 473.85546875 783.598632812 495.061523438 766.505859375 502.809570312 735.27734375 c 9
 505.577148438 464.985351562 l 17
 494.375976562 438.146484375 479.227539062 419.232421875 455.762695312 417.014648438 c 9
 433.622070312 415.169921875 l 25
 382.884765625 465.907226562 l 25
 382.884765625 661.477539062 l 25
 447.459960938 795.240234375 l 17
159.639648438 679.004882812 m 25
 372.737304688 679.927734375 l 25
 426.2421875 799.852539062 l 25
 102.4453125 798.9296875 l 17
 82.9033203125 791.814453125 68.1884765625 783.434570312 60.9326171875 773.099609375 c 9
 159.639648438 679.004882812 l 25
139.344726562 676.237304688 m 25
 141.190429688 462.217773438 l 25
 93.2197265625 442.844726562 l 25
 68.3125 440.077148438 l 17
 48.3369140625 440.25 30.88671875 446.02734375 23.1103515625 473.287109375 c 9
 23.1103515625 728.8203125 l 17
 27.478515625 742.904296875 34.6064453125 755.275390625 50.78515625 762.030273438 c 9
 139.344726562 676.237304688 l 25
40.6376953125 32.33203125 m 1049
365.357421875 338.602539062 m 25
 418.862304688 396.719726562 l 25
 367.202148438 458.52734375 l 25
 172.5546875 458.52734375 l 25
 59.087890625 408.712890625 l 25
 58.1650390625 388.41796875 l 25
 165.174804688 338.602539062 l 25
 365.357421875 338.602539062 l 25
461.297851562 387.495117188 m 17
 483.1015625 378.731445312 490.848632812 366.1015625 498.197265625 353.362304688 c 9
 504.655273438 71.0771484375 l 25
 439.157226562 5.580078125 l 25
 380.1171875 133.807617188 l 25
 378.272460938 331.22265625 l 25
 434.544921875 385.650390625 l 25
 461.297851562 387.495117188 l 17
54.474609375 16.650390625 m 25
 144.879882812 117.202148438 l 25
 369.969726562 118.125 l 25
 418.862304688 -1.7998046875 l 25
 95.9873046875 -4.5673828125 l 25
 54.474609375 16.650390625 l 25
EndSplineSet
Validated: 9
EndChar

StartChar: hyphen
Encoding: 45 45 10
Width: 754
Flags: HW
LayerCount: 2
Fore
SplineSet
365.357421875 338.602539062 m 25
 418.862304688 396.719726562 l 25
 367.202148438 458.52734375 l 25
 172.5546875 458.52734375 l 25
 59.087890625 408.712890625 l 25
 58.1650390625 388.41796875 l 25
 165.174804688 338.602539062 l 25
 365.357421875 338.602539062 l 25
EndSplineSet
Validated: 9
EndChar

StartChar: plus
Encoding: 43 43 11
Width: 754
Flags: HW
LayerCount: 2
Fore
SplineSet
328 226 m 17
 289 130 l 0
 252 130 l 0
 215 226 l 9
 214 319 l 25
 328 318 l 25
 328 226 l 17
214 570 m 17
 253 666 l 0
 290 666 l 0
 327 570 l 9
 328 477 l 25
 214 478 l 25
 214 570 l 17
365.357421875 338.602539062 m 25
 482.862304688 381.719726562 l 17
 483 407.424804688 l 0
 367.202148438 458.52734375 l 9
 172.5546875 458.52734375 l 25
 59.087890625 408.712890625 l 25
 58.1650390625 388.41796875 l 25
 165.174804688 338.602539062 l 25
 365.357421875 338.602539062 l 25
EndSplineSet
EndChar

StartChar: period
Encoding: 46 46 12
Width: 0
Flags: HW
LayerCount: 2
Fore
SplineSet
-78.0908203125 16.560546875 m 24
 -56.4462890625 39.6494140625 -55.7255859375 75.7236328125 -78.0908203125 98.08984375 c 24
 -99.7353515625 119.733398438 -135.087890625 118.291015625 -156.733398438 95.923828125 c 24
 -178.377929688 73.55859375 -177.65625 38.9267578125 -156.010742188 16.560546875 c 24
 -134.3671875 -5.0830078125 -99.0146484375 -5.0830078125 -78.0908203125 16.560546875 c 24
EndSplineSet
EndChar

StartChar: S
Encoding: 83 83 13
Width: 754
Flags: HW
LayerCount: 2
Fore
SplineSet
159.639648438 679.004882812 m 25
 372.737304688 679.927734375 l 25
 426.2421875 799.852539062 l 25
 102.4453125 798.9296875 l 17
 82.9033203125 791.814453125 68.1884765625 783.434570312 60.9326171875 773.099609375 c 9
 159.639648438 679.004882812 l 25
139.344726562 676.237304688 m 25
 141.190429688 462.217773438 l 25
 93.2197265625 442.844726562 l 25
 68.3125 440.077148438 l 17
 48.3369140625 440.25 30.88671875 446.02734375 23.1103515625 473.287109375 c 9
 23.1103515625 728.8203125 l 17
 27.478515625 742.904296875 34.6064453125 755.275390625 50.78515625 762.030273438 c 9
 139.344726562 676.237304688 l 25
365.357421875 338.602539062 m 25
 418.862304688 396.719726562 l 25
 367.202148438 458.52734375 l 25
 172.5546875 458.52734375 l 25
 59.087890625 408.712890625 l 25
 58.1650390625 388.41796875 l 25
 165.174804688 338.602539062 l 25
 365.357421875 338.602539062 l 25
461.297851562 387.495117188 m 17
 483.1015625 378.731445312 490.848632812 366.1015625 498.197265625 353.362304688 c 9
 504.655273438 71.0771484375 l 25
 439.157226562 5.580078125 l 25
 380.1171875 133.807617188 l 25
 378.272460938 331.22265625 l 25
 434.544921875 385.650390625 l 25
 461.297851562 387.495117188 l 17
54.474609375 16.650390625 m 25
 144.879882812 117.202148438 l 25
 369.969726562 118.125 l 25
 418.862304688 -1.7998046875 l 25
 95.9873046875 -4.5673828125 l 25
 54.474609375 16.650390625 l 25
EndSplineSet
EndChar

StartChar: t
Encoding: 116 116 14
Width: 754
Flags: HW
LayerCount: 2
Fore
SplineSet
139.344726562 676.237304688 m 25
 141.190429688 462.217773438 l 25
 93.2197265625 442.844726562 l 25
 68.3125 440.077148438 l 17
 48.3369140625 440.25 30.88671875 446.02734375 23.1103515625 473.287109375 c 9
 23.1103515625 728.8203125 l 17
 27.478515625 742.904296875 34.6064453125 755.275390625 50.78515625 762.030273438 c 9
 139.344726562 676.237304688 l 25
135.655273438 334.912109375 m 25
 136.577148438 133.807617188 l 25
 40.6376953125 32.33203125 l 25
 18.4970703125 63.697265625 l 25
 18.4970703125 315.540039062 l 17
 24.5205078125 332.502929688 30.0068359375 349.680664062 60.009765625 357.052734375 c 9
 85.83984375 357.052734375 l 25
 135.655273438 334.912109375 l 25
365.357421875 338.602539062 m 25
 418.862304688 396.719726562 l 25
 367.202148438 458.52734375 l 25
 172.5546875 458.52734375 l 25
 59.087890625 408.712890625 l 25
 58.1650390625 388.41796875 l 25
 165.174804688 338.602539062 l 25
 365.357421875 338.602539062 l 25
54.474609375 16.650390625 m 25
 144.879882812 117.202148438 l 25
 369.969726562 118.125 l 25
 418.862304688 -1.7998046875 l 25
 95.9873046875 -4.5673828125 l 25
 54.474609375 16.650390625 l 25
EndSplineSet
EndChar

StartChar: d
Encoding: 100 100 15
Width: 754
Flags: HW
LayerCount: 2
Fore
SplineSet
447.459960938 795.240234375 m 17
 473.85546875 783.598632812 495.061523438 766.505859375 502.809570312 735.27734375 c 9
 505.577148438 464.985351562 l 17
 494.375976562 438.146484375 479.227539062 419.232421875 455.762695312 417.014648438 c 9
 433.622070312 415.169921875 l 25
 382.884765625 465.907226562 l 25
 382.884765625 661.477539062 l 25
 447.459960938 795.240234375 l 17
135.655273438 334.912109375 m 25
 136.577148438 133.807617188 l 25
 40.6376953125 32.33203125 l 25
 18.4970703125 63.697265625 l 25
 18.4970703125 315.540039062 l 17
 24.5205078125 332.502929688 30.0068359375 349.680664062 60.009765625 357.052734375 c 9
 85.83984375 357.052734375 l 25
 135.655273438 334.912109375 l 25
365.357421875 338.602539062 m 25
 418.862304688 396.719726562 l 25
 367.202148438 458.52734375 l 25
 172.5546875 458.52734375 l 25
 59.087890625 408.712890625 l 25
 58.1650390625 388.41796875 l 25
 165.174804688 338.602539062 l 25
 365.357421875 338.602539062 l 25
461.297851562 387.495117188 m 17
 483.1015625 378.731445312 490.848632812 366.1015625 498.197265625 353.362304688 c 9
 504.655273438 71.0771484375 l 25
 439.157226562 5.580078125 l 25
 380.1171875 133.807617188 l 25
 378.272460938 331.22265625 l 25
 434.544921875 385.650390625 l 25
 461.297851562 387.495117188 l 17
54.474609375 16.650390625 m 25
 144.879882812 117.202148438 l 25
 369.969726562 118.125 l 25
 418.862304688 -1.7998046875 l 25
 95.9873046875 -4.5673828125 l 25
 54.474609375 16.650390625 l 25
EndSplineSet
EndChar

StartChar: D
Encoding: 68 68 16
Width: 754
Flags: HW
LayerCount: 2
Fore
SplineSet
447.459960938 795.240234375 m 17
 473.85546875 783.598632812 495.061523438 766.505859375 502.809570312 735.27734375 c 9
 505.577148438 464.985351562 l 17
 494.375976562 438.146484375 479.227539062 419.232421875 455.762695312 417.014648438 c 9
 433.622070312 415.169921875 l 25
 382.884765625 465.907226562 l 25
 382.884765625 661.477539062 l 25
 447.459960938 795.240234375 l 17
135.655273438 334.912109375 m 25
 136.577148438 133.807617188 l 25
 40.6376953125 32.33203125 l 25
 18.4970703125 63.697265625 l 25
 18.4970703125 315.540039062 l 17
 24.5205078125 332.502929688 30.0068359375 349.680664062 60.009765625 357.052734375 c 9
 85.83984375 357.052734375 l 25
 135.655273438 334.912109375 l 25
365.357421875 338.602539062 m 25
 418.862304688 396.719726562 l 25
 367.202148438 458.52734375 l 25
 172.5546875 458.52734375 l 25
 59.087890625 408.712890625 l 25
 58.1650390625 388.41796875 l 25
 165.174804688 338.602539062 l 25
 365.357421875 338.602539062 l 25
461.297851562 387.495117188 m 17
 483.1015625 378.731445312 490.848632812 366.1015625 498.197265625 353.362304688 c 9
 504.655273438 71.0771484375 l 25
 439.157226562 5.580078125 l 25
 380.1171875 133.807617188 l 25
 378.272460938 331.22265625 l 25
 434.544921875 385.650390625 l 25
 461.297851562 387.495117188 l 17
54.474609375 16.650390625 m 25
 144.879882812 117.202148438 l 25
 369.969726562 118.125 l 25
 418.862304688 -1.7998046875 l 25
 95.9873046875 -4.5673828125 l 25
 54.474609375 16.650390625 l 25
EndSplineSet
EndChar

StartChar: T
Encoding: 84 84 17
Width: 754
Flags: HW
LayerCount: 2
Fore
SplineSet
139.344726562 676.237304688 m 25
 141.190429688 462.217773438 l 25
 93.2197265625 442.844726562 l 25
 68.3125 440.077148438 l 17
 48.3369140625 440.25 30.88671875 446.02734375 23.1103515625 473.287109375 c 9
 23.1103515625 728.8203125 l 17
 27.478515625 742.904296875 34.6064453125 755.275390625 50.78515625 762.030273438 c 9
 139.344726562 676.237304688 l 25
135.655273438 334.912109375 m 25
 136.577148438 133.807617188 l 25
 40.6376953125 32.33203125 l 25
 18.4970703125 63.697265625 l 25
 18.4970703125 315.540039062 l 17
 24.5205078125 332.502929688 30.0068359375 349.680664062 60.009765625 357.052734375 c 9
 85.83984375 357.052734375 l 25
 135.655273438 334.912109375 l 25
365.357421875 338.602539062 m 25
 418.862304688 396.719726562 l 25
 367.202148438 458.52734375 l 25
 172.5546875 458.52734375 l 25
 59.087890625 408.712890625 l 25
 58.1650390625 388.41796875 l 25
 165.174804688 338.602539062 l 25
 365.357421875 338.602539062 l 25
54.474609375 16.650390625 m 25
 144.879882812 117.202148438 l 25
 369.969726562 118.125 l 25
 418.862304688 -1.7998046875 l 25
 95.9873046875 -4.5673828125 l 25
 54.474609375 16.650390625 l 25
EndSplineSet
EndChar

StartChar: s
Encoding: 115 115 18
Width: 754
Flags: HW
LayerCount: 2
Fore
SplineSet
159.639648438 679.004882812 m 25
 372.737304688 679.927734375 l 25
 426.2421875 799.852539062 l 25
 102.4453125 798.9296875 l 17
 82.9033203125 791.814453125 68.1884765625 783.434570312 60.9326171875 773.099609375 c 9
 159.639648438 679.004882812 l 25
139.344726562 676.237304688 m 25
 141.190429688 462.217773438 l 25
 93.2197265625 442.844726562 l 25
 68.3125 440.077148438 l 17
 48.3369140625 440.25 30.88671875 446.02734375 23.1103515625 473.287109375 c 9
 23.1103515625 728.8203125 l 17
 27.478515625 742.904296875 34.6064453125 755.275390625 50.78515625 762.030273438 c 9
 139.344726562 676.237304688 l 25
365.357421875 338.602539062 m 25
 418.862304688 396.719726562 l 25
 367.202148438 458.52734375 l 25
 172.5546875 458.52734375 l 25
 59.087890625 408.712890625 l 25
 58.1650390625 388.41796875 l 25
 165.174804688 338.602539062 l 25
 365.357421875 338.602539062 l 25
461.297851562 387.495117188 m 17
 483.1015625 378.731445312 490.848632812 366.1015625 498.197265625 353.362304688 c 9
 504.655273438 71.0771484375 l 25
 439.157226562 5.580078125 l 25
 380.1171875 133.807617188 l 25
 378.272460938 331.22265625 l 25
 434.544921875 385.650390625 l 25
 461.297851562 387.495117188 l 17
54.474609375 16.650390625 m 25
 144.879882812 117.202148438 l 25
 369.969726562 118.125 l 25
 418.862304688 -1.7998046875 l 25
 95.9873046875 -4.5673828125 l 25
 54.474609375 16.650390625 l 25
EndSplineSet
EndChar

StartChar: o
Encoding: 111 111 19
Width: 754
Flags: HW
LayerCount: 2
Fore
SplineSet
135.655273438 334.912109375 m 25
 136.577148438 133.807617188 l 25
 40.6376953125 32.33203125 l 25
 18.4970703125 63.697265625 l 25
 18.4970703125 315.540039062 l 17
 24.5205078125 332.502929688 30.0068359375 349.680664062 60.009765625 357.052734375 c 9
 85.83984375 357.052734375 l 25
 135.655273438 334.912109375 l 25
365.357421875 338.602539062 m 25
 418.862304688 396.719726562 l 25
 367.202148438 458.52734375 l 25
 172.5546875 458.52734375 l 25
 59.087890625 408.712890625 l 25
 58.1650390625 388.41796875 l 25
 165.174804688 338.602539062 l 25
 365.357421875 338.602539062 l 25
461.297851562 387.495117188 m 17
 483.1015625 378.731445312 490.848632812 366.1015625 498.197265625 353.362304688 c 9
 504.655273438 71.0771484375 l 25
 439.157226562 5.580078125 l 25
 380.1171875 133.807617188 l 25
 378.272460938 331.22265625 l 25
 434.544921875 385.650390625 l 25
 461.297851562 387.495117188 l 17
54.474609375 16.650390625 m 25
 144.879882812 117.202148438 l 25
 369.969726562 118.125 l 25
 418.862304688 -1.7998046875 l 25
 95.9873046875 -4.5673828125 l 25
 54.474609375 16.650390625 l 25
EndSplineSet
EndChar

StartChar: asciitilde
Encoding: 126 126 20
Width: 754
Flags: HW
LayerCount: 2
Fore
SplineSet
365.357421875 338.602539062 m 25
 482.862304688 381.719726562 l 17
 483 407.424804688 l 0
 367.202148438 458.52734375 l 9
 172.5546875 458.52734375 l 25
 59.087890625 408.712890625 l 25
 58.1650390625 388.41796875 l 25
 165.174804688 338.602539062 l 25
 365.357421875 338.602539062 l 25
EndSplineSet
EndChar

